<svg width="24" height="24" viewBox="0 0 24 24" fill="none" xmlns="http://www.w3.org/2000/svg">
<path d="M9.28811 8.76191H8.94552H6.66162V10.8571H9.11682C9.55456 10.8571 9.93521 10.7429 9.93521 9.73334C9.93521 8.72381 9.28811 8.76191 9.28811 8.76191Z" fill="white"/>
<path d="M9.28811 12.381H6.66162V15.0476H8.96456C9.00262 15.0476 9.05972 15.0476 9.13585 15.0476C9.5165 15.0476 10.2397 14.8953 10.2397 13.7524C10.2588 12.4 9.28811 12.381 9.28811 12.381Z" fill="white"/>
<path d="M17.9667 0H6.01427C2.70262 0 0 2.70476 0 6.01905V18C0 21.2952 2.70262 24 6.01427 24H17.9857C21.2974 24 24 21.2952 24 17.981V6.01905C23.981 2.70476 21.2784 0 17.9667 0ZM14.0841 7.61905H18.0809V8.57143H14.0841V7.61905ZM12.2189 13.8857C12.2189 16.8571 9.28787 16.9524 9.28787 16.9524H6.58525H6.50912H4.5678V7.04762H6.49009H6.56622H9.26883C10.7343 7.04762 11.8953 7.88571 11.8953 9.6381C11.8953 11.3905 10.4869 11.4857 10.4869 11.4857C12.3521 11.4667 12.2189 13.8857 12.2189 13.8857ZM19.3941 13.7143H14.5789C14.5789 15.619 16.2157 15.4667 16.2157 15.4667C17.7573 15.4667 17.7002 14.4762 17.7002 14.4762H19.337C19.337 17.1429 16.1586 17.0286 16.1586 17.0286C12.3521 17.0286 12.5995 13.2762 12.5995 13.2762C12.5995 13.2762 12.5995 9.50476 16.1586 9.50476C19.908 9.48571 19.3941 13.7143 19.3941 13.7143Z" fill="white"/>
<path d="M16.1969 10.8762C14.7694 10.8762 14.5601 12.381 14.5601 12.381H17.6053C17.6053 12.381 17.6243 10.8762 16.1969 10.8762Z" fill="white"/>
</svg>
