<svg width="530" height="129" viewBox="0 0 530 129" fill="none" xmlns="http://www.w3.org/2000/svg">
<path d="M529.5 86.4828C529.5 89.1914 527.789 91.9284 524.308 94.658C520.835 97.3809 515.682 100.029 508.998 102.565C495.635 107.634 476.269 112.208 452.304 116.053C404.382 123.742 338.16 128.5 265 128.5C191.84 128.5 125.618 123.742 77.6959 116.053C53.7309 112.208 34.3654 107.634 21.0023 102.565C14.3181 100.029 9.16521 97.3809 5.69237 94.658C2.21093 91.9284 0.5 89.1914 0.5 86.4828C0.5 83.7742 2.21093 81.0373 5.69237 78.3076C9.16521 75.5847 14.3181 72.9363 21.0023 70.4008C34.3654 65.3318 53.7309 60.7574 77.6959 56.9124C125.618 49.2237 191.84 44.4658 265 44.4658C338.16 44.4658 404.382 49.2237 452.304 56.9124C476.269 60.7574 495.635 65.3318 508.998 70.4008C515.682 72.9363 520.835 75.5847 524.308 78.3076C527.789 81.0373 529.5 83.7742 529.5 86.4828Z" stroke="url(#paint0_radial_21_11)"/>
<path d="M529.5 75.4916C529.5 78.2002 527.789 80.9371 524.308 83.6668C520.835 86.3897 515.682 89.0381 508.998 91.5736C495.635 96.6426 476.269 101.217 452.304 105.062C404.382 112.751 338.16 117.509 265 117.509C191.84 117.509 125.618 112.751 77.6959 105.062C53.7309 101.217 34.3654 96.6426 21.0023 91.5736C14.3181 89.0381 9.16521 86.3897 5.69237 83.6668C2.21093 80.9371 0.5 78.2002 0.5 75.4916C0.5 72.783 2.21093 70.0461 5.69237 67.3164C9.16521 64.5935 14.3181 61.9451 21.0023 59.4096C34.3654 54.3406 53.7309 49.7662 77.6959 45.9212C125.618 38.2325 191.84 33.4746 265 33.4746C338.16 33.4746 404.382 38.2325 452.304 45.9212C476.269 49.7662 495.635 54.3406 508.998 59.4096C515.682 61.9451 520.835 64.5935 524.308 67.3164C527.789 70.0461 529.5 72.783 529.5 75.4916Z" stroke="url(#paint1_radial_21_11)"/>
<path d="M529.5 64.4999C529.5 67.2085 527.789 69.9454 524.308 72.6751C520.835 75.398 515.682 78.0464 508.998 80.5819C495.635 85.6509 476.269 90.2253 452.304 94.0703C404.382 101.759 338.16 106.517 265 106.517C191.84 106.517 125.618 101.759 77.6959 94.0703C53.7309 90.2253 34.3654 85.6509 21.0023 80.5819C14.3181 78.0464 9.16521 75.398 5.69237 72.6751C2.21093 69.9454 0.5 67.2085 0.5 64.4999C0.5 61.7913 2.21093 59.0544 5.69237 56.3247C9.16521 53.6018 14.3181 50.9534 21.0023 48.4179C34.3654 43.3489 53.7309 38.7745 77.6959 34.9295C125.618 27.2408 191.84 22.4829 265 22.4829C338.16 22.4829 404.382 27.2408 452.304 34.9295C476.269 38.7745 495.635 43.3489 508.998 48.4179C515.682 50.9534 520.835 53.6018 524.308 56.3247C527.789 59.0544 529.5 61.7913 529.5 64.4999Z" stroke="url(#paint2_radial_21_11)"/>
<path d="M529.5 53.5087C529.5 56.2173 527.789 58.9542 524.308 61.6839C520.835 64.4068 515.682 67.0552 508.998 69.5907C495.635 74.6597 476.269 79.2341 452.304 83.0791C404.382 90.7678 338.16 95.5257 265 95.5257C191.84 95.5257 125.618 90.7678 77.6959 83.0791C53.7309 79.2341 34.3654 74.6597 21.0023 69.5907C14.3181 67.0552 9.16521 64.4068 5.69237 61.6839C2.21093 58.9542 0.5 56.2173 0.5 53.5087C0.5 50.8001 2.21093 48.0632 5.69237 45.3335C9.16521 42.6106 14.3181 39.9622 21.0023 37.4267C34.3654 32.3577 53.7309 27.7833 77.6959 23.9383C125.618 16.2496 191.84 11.4917 265 11.4917C338.16 11.4917 404.382 16.2496 452.304 23.9383C476.269 27.7833 495.635 32.3577 508.998 37.4267C515.682 39.9622 520.835 42.6106 524.308 45.3335C527.789 48.0632 529.5 50.8001 529.5 53.5087Z" stroke="url(#paint3_radial_21_11)"/>
<path d="M529.5 42.517C529.5 45.2256 527.789 47.9625 524.308 50.6922C520.835 53.4151 515.682 56.0635 508.998 58.599C495.635 63.668 476.269 68.2424 452.304 72.0874C404.382 79.7761 338.16 84.534 265 84.534C191.84 84.534 125.618 79.7761 77.6959 72.0874C53.7309 68.2424 34.3654 63.668 21.0023 58.599C14.3181 56.0635 9.16521 53.4151 5.69237 50.6922C2.21093 47.9625 0.5 45.2256 0.5 42.517C0.5 39.8084 2.21093 37.0715 5.69237 34.3418C9.16521 31.6189 14.3181 28.9705 21.0023 26.435C34.3654 21.366 53.7309 16.7916 77.6959 12.9466C125.618 5.25792 191.84 0.5 265 0.5C338.16 0.5 404.382 5.25792 452.304 12.9466C476.269 16.7916 495.635 21.366 508.998 26.435C515.682 28.9705 520.835 31.6189 524.308 34.3418C527.789 37.0715 529.5 39.8084 529.5 42.517Z" stroke="url(#paint4_radial_21_11)"/>
<defs>
<radialGradient id="paint0_radial_21_11" cx="0" cy="0" r="1" gradientUnits="userSpaceOnUse" gradientTransform="translate(265 86.4828) rotate(90) scale(42.517 265)">
<stop stop-color="white" stop-opacity="0"/>
<stop offset="1" stop-color="white" stop-opacity="0.3"/>
</radialGradient>
<radialGradient id="paint1_radial_21_11" cx="0" cy="0" r="1" gradientUnits="userSpaceOnUse" gradientTransform="translate(265 75.4916) rotate(90) scale(42.517 265)">
<stop stop-color="white" stop-opacity="0"/>
<stop offset="1" stop-color="white" stop-opacity="0.3"/>
</radialGradient>
<radialGradient id="paint2_radial_21_11" cx="0" cy="0" r="1" gradientUnits="userSpaceOnUse" gradientTransform="translate(265 64.4999) rotate(90) scale(42.517 265)">
<stop stop-color="white" stop-opacity="0"/>
<stop offset="1" stop-color="white" stop-opacity="0.3"/>
</radialGradient>
<radialGradient id="paint3_radial_21_11" cx="0" cy="0" r="1" gradientUnits="userSpaceOnUse" gradientTransform="translate(265 53.5087) rotate(90) scale(42.517 265)">
<stop stop-color="white" stop-opacity="0"/>
<stop offset="1" stop-color="white" stop-opacity="0.3"/>
</radialGradient>
<radialGradient id="paint4_radial_21_11" cx="0" cy="0" r="1" gradientUnits="userSpaceOnUse" gradientTransform="translate(265 42.517) rotate(90) scale(42.517 265)">
<stop stop-color="white" stop-opacity="0"/>
<stop offset="1" stop-color="white" stop-opacity="0.3"/>
</radialGradient>
</defs>
</svg>
