<svg width="24" height="24" viewBox="0 0 24 24" fill="none" xmlns="http://www.w3.org/2000/svg">
<path d="M11.7073 0C5.23902 0 0 5.36665 0 11.9925C0 17.2992 3.35122 21.7814 8.00488 23.3704C8.59024 23.4753 8.80976 23.1156 8.80976 22.8007C8.80976 22.5159 8.79512 21.5715 8.79512 20.5671C5.85366 21.1218 5.09268 19.8326 4.85854 19.158C4.72683 18.8132 4.1561 17.7489 3.65854 17.4641C3.24878 17.2392 2.66341 16.6846 3.6439 16.6696C4.56585 16.6546 5.22439 17.539 5.4439 17.8988C6.49756 19.7127 8.18049 19.203 8.85366 18.8882C8.9561 18.1087 9.26341 17.584 9.6 17.2842C6.99512 16.9844 4.27317 15.95 4.27317 11.3629C4.27317 10.0587 4.72683 8.97939 5.47317 8.13991C5.3561 7.8401 4.94634 6.61087 5.59024 4.9619C5.59024 4.9619 6.57073 4.6471 8.80976 6.19113C9.74634 5.9213 10.7415 5.78638 11.7366 5.78638C12.7317 5.78638 13.7268 5.9213 14.6634 6.19113C16.9024 4.6321 17.8829 4.9619 17.8829 4.9619C18.5268 6.61087 18.1171 7.8401 18 8.13991C18.7463 8.97939 19.2 10.0437 19.2 11.3629C19.2 15.965 16.4634 16.9844 13.8585 17.2842C14.2829 17.659 14.6488 18.3785 14.6488 19.5028C14.6488 21.1068 14.6341 22.396 14.6341 22.8007C14.6341 23.1156 14.8537 23.4903 15.439 23.3704C17.7631 22.5667 19.7827 21.0366 21.2134 18.9956C22.6441 16.9545 23.414 14.5052 23.4146 11.9925C23.4146 5.36665 18.1756 0 11.7073 0Z" fill="white"/>
</svg>
